<?xml version="1.0" standalone="no"?>
<!DOCTYPE svg PUBLIC "-//W3C//DTD SVG 20010904//EN"
 "http://www.w3.org/TR/2001/REC-SVG-20010904/DTD/svg10.dtd">
<svg version="1.0" xmlns="http://www.w3.org/2000/svg"
 width="800.000000pt" height="800.000000pt" viewBox="0 0 800.000000 800.000000"
 preserveAspectRatio="xMidYMid meet">
<metadata>
Created by potrace 1.14, written by Peter Selinger 2001-2017
</metadata>
<g transform="translate(0.000000,800.000000) scale(0.100000,-0.100000)"
fill="#000000" stroke="none">
<path d="M53 5532 l-23 -3 0 -943 0 -942 138 -43 c75 -23 180 -55 232 -71 52
-15 214 -65 360 -110 146 -45 321 -99 390 -120 69 -21 229 -70 355 -110 127
-39 237 -73 245 -75 8 -2 58 -17 110 -33 52 -17 118 -37 145 -45 28 -9 146
-45 263 -81 118 -36 215 -66 216 -66 1 0 2 595 1 1322 l0 1322 -275 1 c-151 0
-279 -1 -285 -2 -7 -2 -10 -313 -9 -908 1 -824 -1 -905 -15 -900 -25 7 -968
276 -1041 296 -36 10 -109 30 -162 45 -71 19 -98 31 -99 43 0 9 -1 332 -1 719
-1 386 -4 702 -7 703 -16 3 -519 4 -538 1z"/>
<path d="M5322 5525 c-5 -8 -10 -2635 -5 -2635 1 0 120 46 265 101 145 56 319
123 388 150 136 52 616 236 1338 514 l462 178 0 284 c0 156 -2 283 -5 283 -2
0 -420 -156 -927 -346 -508 -191 -930 -349 -939 -351 -14 -4 -15 60 -15 629
l1 633 1035 1 1035 0 0 284 0 284 -1313 0 c-866 1 -1316 -2 -1320 -9z"/>
<path d="M2670 4209 c0 -1253 1 -1320 18 -1315 9 3 136 46 282 94 l265 89 3
471 2 472 385 0 c212 0 495 1 630 1 135 0 259 -1 275 -1 l30 0 0 -374 0 -374
28 -21 c15 -11 142 -97 282 -191 l255 -170 3 1317 c1 724 0 1318 -2 1321 -3 2
-131 -38 -285 -89 l-281 -94 0 -375 0 -375 -660 0 -660 0 0 281 0 280 -280
187 c-154 103 -282 187 -285 187 -3 0 -5 -594 -5 -1321z"/>
</g>
</svg>
